<svg width="360" height="220" viewBox="0 0 360 220" fill="none" xmlns="http://www.w3.org/2000/svg">
<rect x="32.0574" y="108.167" width="308.498" height="82.5925" transform="rotate(-6.61788 32.0574 108.167)" fill="#04251F"/>
<path d="M82.8071 161.394C82.083 162.071 81.1535 162.633 80.0186 163.079C78.9142 163.486 77.7422 163.761 76.5025 163.905C73.1622 164.293 70.4989 163.747 68.5125 162.267C66.526 160.788 65.3431 158.412 64.9635 155.141L62.1349 130.76L70.1928 129.825L70.9779 136.592L77.8478 135.795L78.567 141.993L71.697 142.79L73.0095 154.102C73.1453 155.273 73.5439 156.152 74.2052 156.738C74.8625 157.29 75.7422 157.502 76.8441 157.374C78.0838 157.231 79.1458 156.758 80.0301 155.958L82.8071 161.394ZM92.4118 137.194C93.2201 135.739 94.3936 134.573 95.9322 133.697C97.5052 132.816 99.3592 132.252 101.494 132.004L102.357 139.443C101.454 139.478 100.847 139.513 100.537 139.549C98.2301 139.817 96.4982 140.681 95.3414 142.141C94.1807 143.567 93.7502 145.571 94.0498 148.154L95.572 161.274L87.514 162.209L84.2899 134.419L91.9863 133.526L92.4118 137.194ZM134.284 128.619L137.508 156.409L129.812 157.301L129.44 154.099C127.723 156.741 124.97 158.282 121.182 158.722C118.565 159.025 116.121 158.715 113.85 157.792C111.614 156.865 109.767 155.387 108.31 153.357C106.853 151.328 105.959 148.884 105.627 146.026C105.296 143.167 105.607 140.584 106.56 138.274C107.514 135.965 108.973 134.103 110.938 132.689C112.937 131.27 115.245 130.409 117.862 130.105C121.409 129.694 124.311 130.492 126.568 132.498L126.226 129.554L134.284 128.619ZM121.81 151.948C123.841 151.712 125.449 150.828 126.632 149.295C127.811 147.727 128.265 145.772 127.993 143.431C127.721 141.089 126.834 139.307 125.331 138.086C123.825 136.83 122.055 136.32 120.024 136.555C117.958 136.795 116.335 137.699 115.156 139.266C113.972 140.8 113.517 142.737 113.788 145.079C114.06 147.42 114.949 149.219 116.456 150.475C117.959 151.697 119.743 152.188 121.81 151.948ZM169.327 124.553L160.826 153.703L152.51 154.668L137.612 128.233L145.928 127.268L155.818 145.28L161.579 125.452L169.327 124.553ZM188.38 144.382C189.826 144.214 191.076 143.859 192.13 143.318C193.215 142.739 194.185 141.928 195.041 140.887L199.868 145.038C197.599 148.338 193.95 150.279 188.922 150.862C185.789 151.226 182.947 150.945 180.396 150.019C177.842 149.059 175.785 147.57 174.224 145.553C172.664 143.535 171.724 141.149 171.405 138.394C171.089 135.674 171.442 133.155 172.465 130.838C173.518 128.482 175.093 126.571 177.192 125.107C179.321 123.603 181.797 122.688 184.621 122.36C187.272 122.052 189.749 122.341 192.05 123.226C194.347 124.076 196.257 125.495 197.779 127.482C199.331 129.431 200.275 131.851 200.611 134.744L180.514 141.106C181.259 142.416 182.292 143.343 183.611 143.888C184.965 144.429 186.555 144.593 188.38 144.382ZM185.328 128.455C183.296 128.691 181.719 129.537 180.597 130.993C179.475 132.45 179.013 134.336 179.212 136.651L192.439 132.446C191.893 131.044 190.984 129.98 189.713 129.255C188.443 128.53 186.981 128.263 185.328 128.455ZM217.686 147.525C214.552 147.889 212.012 147.346 210.064 145.897C208.112 144.413 206.958 142.139 206.602 139.074L203.222 109.942L211.28 109.007L214.606 137.674C214.742 138.845 215.141 139.724 215.802 140.31C216.494 140.858 217.391 141.068 218.493 140.94C218.906 140.892 219.313 140.793 219.714 140.641C220.15 140.486 220.48 140.326 220.705 140.16L221.792 146.368C220.501 146.972 219.132 147.357 217.686 147.525ZM235.795 145.424C232.661 145.788 230.121 145.245 228.173 143.796C226.221 142.312 225.067 140.038 224.711 136.973L221.331 107.841L229.389 106.906L232.715 135.573C232.851 136.744 233.25 137.623 233.911 138.209C234.603 138.757 235.5 138.967 236.602 138.839C237.015 138.791 237.422 138.692 237.823 138.54C238.259 138.385 238.589 138.225 238.814 138.059L239.901 144.267C238.61 144.871 237.241 145.256 235.795 145.424ZM256.68 136.457C258.126 136.29 259.376 135.935 260.43 135.394C261.514 134.815 262.485 134.004 263.341 132.962L268.168 137.114C265.898 140.413 262.25 142.355 257.222 142.938C254.088 143.302 251.246 143.021 248.696 142.095C246.142 141.135 244.084 139.646 242.524 137.629C240.964 135.611 240.024 133.225 239.704 130.47C239.389 127.749 239.742 125.231 240.765 122.913C241.817 120.558 243.393 118.647 245.492 117.182C247.62 115.679 250.097 114.764 252.921 114.436C255.572 114.128 258.049 114.417 260.35 115.302C262.647 116.152 264.557 117.57 266.078 119.558C267.631 121.506 268.575 123.927 268.91 126.82L248.814 133.182C249.559 134.492 250.591 135.419 251.911 135.964C253.265 136.505 254.854 136.669 256.68 136.457ZM253.628 120.531C251.596 120.767 250.019 121.613 248.897 123.069C247.774 124.526 247.313 126.411 247.511 128.727L260.739 124.522C260.192 123.12 259.284 122.056 258.013 121.331C256.742 120.606 255.281 120.339 253.628 120.531ZM280.866 115.329C281.675 113.874 282.848 112.709 284.387 111.832C285.96 110.952 287.814 110.388 289.949 110.14L290.812 117.578C289.909 117.613 289.302 117.648 288.992 117.684C286.685 117.952 284.953 118.816 283.796 120.277C282.635 121.702 282.205 123.707 282.504 126.289L284.027 139.409L275.969 140.344L272.745 112.555L280.441 111.662L280.866 115.329ZM307.51 137.104C305.203 137.371 302.916 137.358 300.648 137.062C298.376 136.733 296.536 136.213 295.127 135.504L297.142 129.407C298.474 130.055 300.048 130.536 301.864 130.849C303.676 131.127 305.426 131.168 307.113 130.973C310.522 130.577 312.129 129.536 311.933 127.848C311.841 127.056 311.31 126.542 310.341 126.306C309.371 126.069 307.908 125.942 305.952 125.925C303.639 125.844 301.716 125.666 300.184 125.39C298.651 125.114 297.268 124.472 296.034 123.463C294.835 122.451 294.113 120.894 293.869 118.794C293.666 117.038 293.985 115.43 294.828 113.971C295.701 112.474 297.058 111.235 298.899 110.253C300.773 109.268 303.037 108.621 305.688 108.314C307.651 108.086 309.623 108.084 311.603 108.308C313.614 108.494 315.3 108.891 316.662 109.501L314.641 115.546C312.037 114.452 309.288 114.073 306.395 114.409C304.674 114.609 303.41 115 302.605 115.582C301.8 116.164 301.442 116.833 301.53 117.591C301.63 118.452 302.164 119 303.134 119.237C304.104 119.473 305.622 119.629 307.69 119.703C310.007 119.818 311.914 120.016 313.413 120.295C314.907 120.541 316.254 121.17 317.453 122.182C318.652 123.195 319.37 124.717 319.606 126.749C319.805 128.471 319.467 130.063 318.589 131.526C317.712 132.989 316.319 134.215 314.409 135.204C312.53 136.155 310.231 136.788 307.51 137.104Z" fill="#18DCB8"/>
<rect x="12.888" y="52.4157" width="246" height="68" transform="rotate(-6.85789 12.888 52.4157)" fill="#18DCB8"/>
<path d="M107.98 66.3366L109.682 80.4906C110.137 84.2714 109.456 87.3185 107.639 89.632C105.822 91.9455 103.008 93.3315 99.1952 93.79C97.3525 94.0116 95.6819 93.9225 94.1834 93.5225C92.7167 93.1188 91.4304 92.3388 90.3244 91.1826C89.5241 92.5681 88.4594 93.6308 87.1302 94.3708C85.8011 95.1108 84.1834 95.5954 82.2771 95.8247C78.4328 96.2871 75.3698 95.6079 73.0881 93.7874C70.8064 91.9668 69.4382 89.1661 68.9835 85.3854L67.2812 71.2314L74.7156 70.3372L76.3491 83.9194C76.6051 86.048 77.1596 87.5768 78.0127 88.5055C78.8618 89.4026 80.0648 89.7575 81.6216 89.5702C83.2102 89.3792 84.3245 88.7295 84.9648 87.6211C85.605 86.5127 85.799 84.9101 85.5468 82.8132L83.9134 69.2311L91.3478 68.3369L92.9813 81.9191C93.2335 84.016 93.8019 85.5269 94.6867 86.4519C95.5715 87.3768 96.8082 87.7438 98.3967 87.5527C99.9535 87.3655 101.038 86.7355 101.65 85.6627C102.259 84.5581 102.435 82.9415 102.179 80.8129L100.546 67.2308L107.98 66.3366ZM129.991 90.0862C127.291 90.411 124.794 90.1473 122.499 89.2952C120.233 88.4074 118.376 87.0354 116.928 85.179C115.48 83.3226 114.603 81.1236 114.297 78.5819C113.992 76.0402 114.322 73.696 115.289 71.5492C116.255 69.4024 117.736 67.645 119.731 66.277C121.754 64.8735 124.116 64.0093 126.816 63.6845C129.517 63.3597 132 63.6412 134.266 64.5289C136.529 65.3849 138.384 66.7411 139.832 68.5975C141.28 70.4538 142.157 72.6529 142.462 75.1945C142.768 77.7362 142.438 80.0805 141.471 82.2272C140.505 84.374 139.026 86.1473 137.035 87.5471C135.04 88.915 132.692 89.7614 129.991 90.0862ZM129.258 83.9862C131.164 83.7569 132.644 82.9343 133.699 81.5182C134.781 80.0666 135.193 78.2606 134.933 76.1001C134.673 73.9397 133.847 72.2986 132.455 71.1768C131.091 70.0193 129.456 69.5553 127.55 69.7845C125.644 70.0138 124.149 70.8542 123.067 72.3059C121.981 73.7257 121.567 75.5159 121.827 77.6763C122.087 79.8367 122.915 81.4938 124.311 82.6473C125.702 83.7692 127.352 84.2154 129.258 83.9862ZM153.398 64.3069C154.138 62.9608 155.217 61.8803 156.634 61.0653C158.082 60.2465 159.792 59.7186 161.761 59.4817L162.587 66.3442C161.753 66.38 161.193 66.4151 160.907 66.4495C158.779 66.7055 157.183 67.5098 156.121 68.8623C155.055 70.183 154.666 72.0348 154.952 74.4176L156.408 86.5224L148.974 87.4165L145.89 61.7773L152.991 60.9233L153.398 64.3069ZM178.555 84.2456C175.664 84.5933 173.316 84.1021 171.513 82.772C169.705 81.4101 168.631 79.3153 168.291 76.4877L165.059 49.6094L172.493 48.7152L175.674 75.1646C175.804 76.2449 176.175 77.0543 176.788 77.593C177.429 78.0961 178.257 78.2865 179.274 78.1642C179.655 78.1184 180.031 78.0249 180.4 77.8837C180.802 77.7387 181.106 77.5893 181.314 77.4355L182.341 83.1618C181.151 83.7239 179.889 84.0851 178.555 84.2456ZM207.417 44.5151L211.67 79.8762L204.569 80.7302L204.213 77.7755C202.638 80.2211 200.103 81.6541 196.608 82.0744C194.194 82.3648 191.936 82.0883 189.837 81.245C187.769 80.3979 186.058 79.0404 184.706 77.1726C183.353 75.3047 182.518 73.0523 182.201 70.4153C181.884 67.7783 182.161 65.3921 183.032 63.2568C183.903 61.1215 185.243 59.3972 187.051 58.0839C188.891 56.7668 191.018 55.963 193.433 55.6726C196.705 55.2791 199.387 56.004 201.478 57.8475L199.982 45.4092L207.417 44.5151ZM197.161 75.8196C199.036 75.5941 200.516 74.7715 201.602 73.3516C202.685 71.9 203.096 70.094 202.836 67.9335C202.576 65.7731 201.751 64.132 200.359 63.0102C198.963 61.8566 197.328 61.3925 195.453 61.6179C193.547 61.8472 192.053 62.6876 190.97 64.1393C189.884 65.5591 189.471 67.3493 189.731 69.5097C189.991 71.6701 190.818 73.3272 192.214 74.4807C193.606 75.6026 195.255 76.0489 197.161 75.8196Z" fill="#04251F"/>
</svg>
